HIERARCHY
ROOT Hips
{
	OFFSET 0.000000 0.000000 0.000000
	CHANNELS 6 Xposition Yposition Zposition Zrotation Yrotation Xrotation
	JOINT LHipJoint
	{
		OFFSET 0.000000 0.000000 0.000000
		CHANNELS 3 Zrotation Yrotation Xrotation
		JOINT LeftUpLeg
		{
			OFFSET 1.363060 -1.794630 0.839290
			CHANNELS 3 Zrotation Yrotation Xrotation
			JOINT LeftLeg
			{
				OFFSET 2.448110 -6.726130 0.000000
				CHANNELS 3 Zrotation Yrotation Xrotation
				JOINT LeftFoot
				{
					OFFSET 2.562200 -7.039590 0.000000
					CHANNELS 3 Zrotation Yrotation Xrotation
					JOINT LeftToeBase
					{
						OFFSET 0.157640 -0.433110 2.322550
						CHANNELS 3 Zrotation Yrotation Xrotation
						End Site
						{
							 OFFSET 0.000000 0.000000 0.000000
						}
					}
				}
			}
		}
	}
	JOINT RHipJoint
	{
		OFFSET 0.000000 0.000000 0.000000
		CHANNELS 3 Zrotation Yrotation Xrotation
		JOINT RightUpLeg
		{
			OFFSET -1.305520 -1.794630 0.839290
			CHANNELS 3 Zrotation Yrotation Xrotation
			JOINT RightLeg
			{
				OFFSET -2.542530 -6.985550 0.000000
				CHANNELS 3 Zrotation Yrotation Xrotation
				JOINT RightFoot
				{
					OFFSET -2.568260 -7.056230 0.000000
					CHANNELS 3 Zrotation Yrotation Xrotation
					JOINT RightToeBase
					{
						OFFSET -0.164730 -0.452590 2.363150
						CHANNELS 3 Zrotation Yrotation Xrotation
						End Site
						{
							 OFFSET 0.000000 0.000000 0.000000
						}
					}
				}
			}
		}
	}
	JOINT LowerBack
	{
		OFFSET 0.000000 0.000000 0.000000
		CHANNELS 3 Zrotation Yrotation Xrotation
		JOINT Spine
		{
			OFFSET 0.028270 2.035590 -0.193380
			CHANNELS 3 Zrotation Yrotation Xrotation
			JOINT Spine1
			{
				OFFSET 0.056720 2.048850 -0.042750
				CHANNELS 3 Zrotation Yrotation Xrotation
				JOINT Neck
				{
					OFFSET 0.000000 0.000000 0.000000
					CHANNELS 3 Zrotation Yrotation Xrotation
					JOINT Neck1
					{
						OFFSET -0.054170 1.746240 0.172020
						CHANNELS 3 Zrotation Yrotation Xrotation
						JOINT Head
						{
							OFFSET 0.104070 1.761360 -0.123970
							CHANNELS 3 Zrotation Yrotation Xrotation
							End Site
							{
								 OFFSET 0.000000 0.000000 0.000000
							}
						}
					}
				}
				JOINT LeftShoulder
				{
					OFFSET 0.000000 0.000000 0.000000
					CHANNELS 3 Zrotation Yrotation Xrotation
					JOINT LeftArm
					{
						OFFSET 3.362410 1.200890 -0.311210
						CHANNELS 3 Zrotation Yrotation Xrotation
						JOINT LeftForeArm
						{
							OFFSET 4.983000 -0.000000 -0.000000
							CHANNELS 3 Zrotation Yrotation Xrotation
							JOINT LeftHand
							{
								OFFSET 3.483560 -0.000000 -0.000000
								CHANNELS 3 Zrotation Yrotation Xrotation
								JOINT LeftFingerBase
								{
									OFFSET 0.000000 0.000000 0.000000
									CHANNELS 3 Zrotation Yrotation Xrotation
									JOINT LeftHandIndex1
									{
										OFFSET 0.715260 -0.000000 -0.000000
										CHANNELS 3 Zrotation Yrotation Xrotation
										End Site
										{
											 OFFSET 0.000000 0.000000 0.000000
										}
									}
								}
								JOINT LThumb
								{
									OFFSET 0.000000 0.000000 0.000000
									CHANNELS 3 Zrotation Yrotation Xrotation
									End Site
									{
										 OFFSET 0.000000 0.000000 0.000000
									}
								}
							}
						}
					}
				}
				JOINT RightShoulder
				{
					OFFSET 0.000000 0.000000 0.000000
					CHANNELS 3 Zrotation Yrotation Xrotation
					JOINT RightArm
					{
						OFFSET -3.136600 1.374050 -0.404650
						CHANNELS 3 Zrotation Yrotation Xrotation
						JOINT RightForeArm
						{
							OFFSET -5.241900 -0.000000 -0.000000
							CHANNELS 3 Zrotation Yrotation Xrotation
							JOINT RightHand
							{
								OFFSET -3.444170 -0.000000 -0.000000
								CHANNELS 3 Zrotation Yrotation Xrotation
								JOINT RightFingerBase
								{
									OFFSET 0.000000 0.000000 0.000000
									CHANNELS 3 Zrotation Yrotation Xrotation
									JOINT RightHandIndex1
									{
										OFFSET -0.622530 -0.000000 -0.000000
										CHANNELS 3 Zrotation Yrotation Xrotation
										End Site
										{
											 OFFSET 0.000000 0.000000 0.000000
										}
									}
								}
								JOINT RThumb
								{
									OFFSET 0.000000 0.000000 0.000000
									CHANNELS 3 Zrotation Yrotation Xrotation
									End Site
									{
										 OFFSET 0.000000 0.000000 0.000000
									}
								}
							}
						}
					}
				}
			}
		}
	}
}
MOTION
Frames: 12
Frame Time: 0.041667
0.000000 0.000000 0.000000 0.000000 0.000000 0.000000 0.000000 0.000000 0.000000 0.000000 0.000000 0.000000 0.000000 0.000000 0.000000 0.000000 0.000000 0.000000 0.000000 0.000000 0.000000 0.000000 0.000000 0.000000 0.000000 0.000000 0.000000 0.000000 0.000000 0.000000 0.000000 0.000000 0.000000 0.000000 0.000000 0.000000 0.000000 0.000000 0.000000 -0.467502 0.621258 0.979345 0.169641 4.869939 7.822872 -2.572320 0.898650 17.216732 -2.610464 0.122586 11.929535 0.000000 0.000000 0.000000 2.541050 17.971736 8.527845 14.052342 -10.591666 23.337569 -17.039075 -81.823931 6.376302 -2.605268 -6.858584 0.399821 -4.137069 -10.891178 0.634900 0.000000 0.000000 0.000000 0.000000 0.000000 0.000000 0.603809 -2.434343 0.657614 0.933050 -5.232377 0.057417 1.410312 -3.339914 -0.455539 0.162047 -0.273221 -0.076528 0.257325 -0.433864 -0.121524 0.000000 0.000000 0.000000 0.000000 0.000000 0.000000 
0.000000 0.000000 0.000000 0.000000 0.000000 0.000000 0.000000 0.000000 0.000000 0.000000 0.000000 0.000000 0.000000 0.000000 0.000000 0.000000 0.000000 0.000000 0.000000 0.000000 0.000000 0.000000 0.000000 0.000000 0.000000 0.000000 0.000000 0.000000 0.000000 0.000000 0.000000 0.000000 0.000000 0.000000 0.000000 0.000000 0.000000 0.000000 0.000000 -0.477733 0.615330 0.969504 0.146468 4.821820 7.770987 -2.524109 0.896407 17.018060 -2.566360 0.134994 11.765290 0.000000 0.000000 0.000000 2.401768 17.833227 8.575044 14.281778 -10.261283 23.343985 -15.859229 -80.685959 6.364959 -2.526723 -6.793592 0.401840 -4.012342 -10.787973 0.638108 0.000000 0.000000 0.000000 0.000000 0.000000 0.000000 0.616672 -2.455991 0.633976 0.936489 -5.161652 0.056749 1.403104 -3.241804 -0.456202 0.161391 -0.267225 -0.076572 0.256282 -0.424343 -0.121594 0.000000 0.000000 0.000000 0.000000 0.000000 0.000000 
0.000000 0.000000 0.000000 0.000000 0.000000 0.000000 0.000000 0.000000 0.000000 0.000000 0.000000 0.000000 0.000000 0.000000 0.000000 0.000000 0.000000 0.000000 0.000000 0.000000 0.000000 0.000000 0.000000 0.000000 0.000000 0.000000 0.000000 0.000000 0.000000 0.000000 0.000000 0.000000 0.000000 0.000000 0.000000 0.000000 0.000000 0.000000 0.000000 -0.487812 0.609265 0.959879 0.122671 4.772632 7.719933 -2.476405 0.894150 16.821202 -2.522780 0.147233 11.602455 0.000000 0.000000 0.000000 2.260474 17.688447 8.622624 14.493516 -9.953302 23.351315 -14.712026 -79.582314 6.353188 -2.449422 -6.730059 0.403863 -3.889592 -10.687085 0.641319 0.000000 0.000000 0.000000 0.000000 0.000000 0.000000 0.629945 -2.474965 0.610950 0.940194 -5.088212 0.056046 1.395879 -3.143150 -0.456909 0.160729 -0.261232 -0.076619 0.255232 -0.414826 -0.121669 0.000000 0.000000 0.000000 0.000000 0.000000 0.000000 
0.000000 0.000000 0.000000 0.000000 0.000000 0.000000 0.000000 0.000000 0.000000 0.000000 0.000000 0.000000 0.000000 0.000000 0.000000 0.000000 0.000000 0.000000 0.000000 0.000000 0.000000 0.000000 0.000000 0.000000 0.000000 0.000000 0.000000 0.000000 0.000000 0.000000 0.000000 0.000000 0.000000 0.000000 0.000000 0.000000 0.000000 0.000000 0.000000 -0.497730 0.603125 0.950440 0.098368 4.722868 7.669626 -2.429201 0.891881 16.626143 -2.479717 0.159306 11.441025 0.000000 0.000000 0.000000 2.117630 17.539509 8.670367 14.688584 -9.663927 23.359566 -13.597450 -78.510360 6.341861 -2.373451 -6.667897 0.405935 -3.768952 -10.588374 0.644609 0.000000 0.000000 0.000000 0.000000 0.000000 0.000000 0.643563 -2.491713 0.588478 0.944066 -5.012774 0.055316 1.388580 -3.044391 -0.457649 0.160060 -0.255262 -0.076668 0.254169 -0.405346 -0.121746 0.000000 0.000000 0.000000 0.000000 0.000000 0.000000 
0.000000 0.000000 0.000000 0.000000 0.000000 0.000000 0.000000 0.000000 0.000000 0.000000 0.000000 0.000000 0.000000 0.000000 0.000000 0.000000 0.000000 0.000000 0.000000 0.000000 0.000000 0.000000 0.000000 0.000000 0.000000 0.000000 0.000000 0.000000 0.000000 0.000000 0.000000 0.000000 0.000000 0.000000 0.000000 0.000000 0.000000 0.000000 0.000000 -0.507480 0.596958 0.941164 0.073663 4.672911 7.619996 -2.382490 0.889601 16.432872 -2.437164 0.171216 11.280997 0.000000 0.000000 0.000000 1.973622 17.388092 8.718104 14.867905 -9.390058 23.368722 -12.515356 -77.467709 6.331645 -2.298874 -6.607020 0.408092 -3.650527 -10.491704 0.648035 0.000000 0.000000 0.000000 0.000000 0.000000 0.000000 0.657480 -2.506620 0.566511 0.948040 -4.935951 0.054566 1.381175 -2.945898 -0.458413 0.159383 -0.249332 -0.076718 0.253094 -0.395930 -0.121826 0.000000 0.000000 0.000000 0.000000 0.000000 0.000000 
0.000000 0.000000 0.000000 0.000000 0.000000 0.000000 0.000000 0.000000 0.000000 0.000000 0.000000 0.000000 0.000000 0.000000 0.000000 0.000000 0.000000 0.000000 0.000000 0.000000 0.000000 0.000000 0.000000 0.000000 0.000000 0.000000 0.000000 0.000000 0.000000 0.000000 0.000000 0.000000 0.000000 0.000000 0.000000 0.000000 0.000000 0.000000 0.000000 -0.517058 0.590802 0.932031 0.048646 4.623055 7.570989 -2.336263 0.887309 16.241379 -2.395113 0.182965 11.122365 0.000000 0.000000 0.000000 1.828782 17.235513 8.765706 15.032318 -9.129179 23.378756 -11.465489 -76.452206 6.323030 -2.225745 -6.547347 0.410360 -3.534401 -10.396944 0.651637 0.000000 0.000000 0.000000 0.000000 0.000000 0.000000 0.671661 -2.520013 0.545004 0.952068 -4.858256 0.053801 1.373640 -2.847979 -0.459197 0.158696 -0.243457 -0.076770 0.252003 -0.386600 -0.121907 0.000000 0.000000 0.000000 0.000000 0.000000 0.000000 
0.000000 0.000000 0.000000 0.000000 0.000000 0.000000 0.000000 0.000000 0.000000 0.000000 0.000000 0.000000 0.000000 0.000000 0.000000 0.000000 0.000000 0.000000 0.000000 0.000000 0.000000 0.000000 0.000000 0.000000 0.000000 0.000000 0.000000 0.000000 0.000000 0.000000 0.000000 0.000000 0.000000 0.000000 0.000000 0.000000 0.000000 0.000000 0.000000 -0.526457 0.584685 0.923026 0.023399 4.573521 7.522562 -2.290513 0.885007 16.051652 -2.353555 0.194556 10.965126 0.000000 0.000000 0.000000 1.683401 17.082792 8.813076 15.182601 -8.879257 23.389627 -10.447495 -75.461925 6.316361 -2.154104 -6.488798 0.412758 -3.420637 -10.303970 0.655445 0.000000 0.000000 0.000000 0.000000 0.000000 0.000000 0.686083 -2.532165 0.523920 0.956121 -4.780117 0.053025 1.365965 -2.750884 -0.459994 0.157999 -0.237648 -0.076821 0.250896 -0.377376 -0.121989 0.000000 0.000000 0.000000 0.000000 0.000000 0.000000 
0.000000 0.000000 0.000000 0.000000 0.000000 0.000000 0.000000 0.000000 0.000000 0.000000 0.000000 0.000000 0.000000 0.000000 0.000000 0.000000 0.000000 0.000000 0.000000 0.000000 0.000000 0.000000 0.000000 0.000000 0.000000 0.000000 0.000000 0.000000 0.000000 0.000000 0.000000 0.000000 0.000000 0.000000 0.000000 0.000000 0.000000 0.000000 0.000000 -0.535676 0.578627 0.914139 -0.002005 4.524474 7.474683 -2.245229 0.882697 15.863682 -2.312483 0.205992 10.809276 0.000000 0.000000 0.000000 1.537736 16.930709 8.860146 15.319480 -8.638656 23.401287 -9.460943 -74.495146 6.311859 -2.083980 -6.431301 0.415296 -3.309283 -10.212668 0.659474 0.000000 0.000000 0.000000 0.000000 0.000000 0.000000 0.700726 -2.543304 0.503227 0.960175 -4.701883 0.052241 1.358140 -2.654817 -0.460801 0.157292 -0.231915 -0.076873 0.249775 -0.368273 -0.122072 0.000000 0.000000 0.000000 0.000000 0.000000 0.000000 
0.000000 0.000000 0.000000 0.000000 0.000000 0.000000 0.000000 0.000000 0.000000 0.000000 0.000000 0.000000 0.000000 0.000000 0.000000 0.000000 0.000000 0.000000 0.000000 0.000000 0.000000 0.000000 0.000000 0.000000 0.000000 0.000000 0.000000 0.000000 0.000000 0.000000 0.000000 0.000000 0.000000 0.000000 0.000000 0.000000 0.000000 0.000000 0.000000 -0.544710 0.572644 0.905361 -0.027498 4.476032 7.427325 -2.200404 0.880377 15.677458 -2.271887 0.217273 10.654811 0.000000 0.000000 0.000000 1.392023 16.779846 8.906868 15.443646 -8.406070 23.413681 -8.505329 -73.550338 6.309654 -2.015393 -6.374790 0.417978 -3.200370 -10.122931 0.663734 0.000000 0.000000 0.000000 0.000000 0.000000 0.000000 0.715574 -2.553617 0.482898 0.964214 -4.623838 0.051453 1.350164 -2.559940 -0.461612 0.156576 -0.226265 -0.076926 0.248637 -0.359301 -0.122155 0.000000 0.000000 0.000000 0.000000 0.000000 0.000000 
0.000000 0.000000 0.000000 0.000000 0.000000 0.000000 0.000000 0.000000 0.000000 0.000000 0.000000 0.000000 0.000000 0.000000 0.000000 0.000000 0.000000 0.000000 0.000000 0.000000 0.000000 0.000000 0.000000 0.000000 0.000000 0.000000 0.000000 0.000000 0.000000 0.000000 0.000000 0.000000 0.000000 0.000000 0.000000 0.000000 0.000000 0.000000 0.000000 -0.553558 0.566746 0.896684 -0.053018 4.428274 7.380471 -2.156028 0.878050 15.492970 -2.231759 0.228403 10.501729 0.000000 0.000000 0.000000 1.246478 16.630630 8.953209 15.555758 -8.180460 23.426753 -7.580097 -72.626142 6.309794 -1.948357 -6.319205 0.420806 -3.093919 -10.034663 0.668225 0.000000 0.000000 0.000000 0.000000 0.000000 0.000000 0.730613 -2.563254 0.462910 0.968222 -4.546208 0.050662 1.342034 -2.466378 -0.462427 0.155850 -0.220703 -0.076978 0.247484 -0.350469 -0.122239 0.000000 0.000000 0.000000 0.000000 0.000000 0.000000 
0.000000 0.000000 0.000000 0.000000 0.000000 0.000000 0.000000 0.000000 0.000000 0.000000 0.000000 0.000000 0.000000 0.000000 0.000000 0.000000 0.000000 0.000000 0.000000 0.000000 0.000000 0.000000 0.000000 0.000000 0.000000 0.000000 0.000000 0.000000 0.000000 0.000000 0.000000 0.000000 0.000000 0.000000 0.000000 0.000000 0.000000 0.000000 0.000000 -0.562218 0.560939 0.888104 -0.078508 4.381255 7.334106 -2.112094 0.875715 15.310210 -2.192091 0.239384 10.350024 0.000000 0.000000 0.000000 1.101301 16.483360 8.999153 15.656449 -7.961001 23.440442 -6.684639 -71.721348 6.312270 -1.882877 -6.264489 0.423778 -2.989939 -9.947777 0.672944 0.000000 0.000000 0.000000 0.000000 0.000000 0.000000 0.745829 -2.572340 0.443246 0.972186 -4.469173 0.049871 1.333748 -2.374225 -0.463241 0.155115 -0.215235 -0.077031 0.246316 -0.341784 -0.122322 0.000000 0.000000 0.000000 0.000000 0.000000 0.000000 
0.000000 0.000000 0.000000 0.000000 0.000000 0.000000 0.000000 0.000000 0.000000 0.000000 0.000000 0.000000 0.000000 0.000000 0.000000 0.000000 0.000000 0.000000 0.000000 0.000000 0.000000 0.000000 0.000000 0.000000 0.000000 0.000000 0.000000 0.000000 0.000000 0.000000 0.000000 0.000000 0.000000 0.000000 0.000000 0.000000 0.000000 0.000000 0.000000 -0.570687 0.555228 0.879617 -0.103912 4.335005 7.288221 -2.068592 0.873374 15.129167 -2.152875 0.250219 10.199693 0.000000 0.000000 0.000000 0.956682 16.338239 9.044692 15.746329 -7.747043 23.454690 -5.818309 -70.834883 6.317028 -1.818951 -6.210595 0.426887 -2.888427 -9.862194 0.677881 0.000000 0.000000 0.000000 0.000000 0.000000 0.000000 0.761206 -2.580971 0.423888 0.976092 -4.392869 0.049081 1.325305 -2.283551 -0.464053 0.154370 -0.209861 -0.077083 0.245133 -0.333252 -0.122404 0.000000 0.000000 0.000000 0.000000 0.000000 0.000000 
